HIERARCHY
ROOT Hips
{
	OFFSET 52.846802 -4.767665 91.633698
	CHANNELS 6 Xposition Yposition Zposition Xrotation Yrotation Zrotation
	JOINT spine
	{
		OFFSET 0.000000 -0.393702 6.846367
		CHANNELS 3 Xrotation Yrotation Zrotation
		JOINT spine1
		{
			OFFSET 0.000000 -0.000001 9.496208
			CHANNELS 3 Xrotation Yrotation Zrotation
			JOINT spine2
			{
				OFFSET 0.000000 -0.000001 9.099091
				CHANNELS 3 Xrotation Yrotation Zrotation
				JOINT Neck
				{
					OFFSET 0.000000 -1.113784 23.361206
					CHANNELS 3 Xrotation Yrotation Zrotation
					JOINT Head
					{
						OFFSET 0.000000 -0.000001 7.058014
						CHANNELS 3 Xrotation Yrotation Zrotation
						End Site
						{
							OFFSET 0.000000 5.634187 17.084396
						}
					}
				}
				JOINT RightShoulder
				{
					OFFSET -3.831360 0.533490 9.826309
					CHANNELS 3 Xrotation Yrotation Zrotation
					JOINT RightArm
					{
						OFFSET 0.000000 -0.000002 12.888092
						CHANNELS 3 Xrotation Yrotation Zrotation
						JOINT RightArmRoll
						{
							OFFSET 0.000000 -0.000001 6.506165
							CHANNELS 3 Xrotation Yrotation Zrotation
							JOINT RightForeArm
							{
								OFFSET 0.000000 -0.000003 18.950104
								CHANNELS 3 Xrotation Yrotation Zrotation
								JOINT RightForeArmRoll
								{
									OFFSET 0.000000 -0.000001 7.300919
									CHANNELS 3 Xrotation Yrotation Zrotation
									JOINT RightHand
									{
										OFFSET 0.000000 -0.000002 14.651398
										CHANNELS 3 Xrotation Yrotation Zrotation
										End Site
										{
											OFFSET 0.000000 0.000000 0.100006
										}
									}
								}
							}
						}
					}
				}
				JOINT LeftShoulder
				{
					OFFSET 3.831360 0.533490 9.826309
					CHANNELS 3 Xrotation Yrotation Zrotation
					JOINT LeftArm
					{
						OFFSET 0.000000 -0.000002 12.888092
						CHANNELS 3 Xrotation Yrotation Zrotation
						JOINT LeftArmRoll
						{
							OFFSET 0.000000 -0.000001 6.506165
							CHANNELS 3 Xrotation Yrotation Zrotation
							JOINT LeftForeArm
							{
								OFFSET 0.000000 -0.000003 18.950104
								CHANNELS 3 Xrotation Yrotation Zrotation
								JOINT LeftForeArmRoll
								{
									OFFSET 0.000000 -0.000001 7.300919
									CHANNELS 3 Xrotation Yrotation Zrotation
									JOINT LeftHand
									{
										OFFSET 0.000000 -0.000002 14.651398
										CHANNELS 3 Xrotation Yrotation Zrotation
										End Site
										{
											OFFSET 0.000000 0.000000 0.100006
										}
									}
								}
							}
						}
					}
				}
			}
		}
	}
	JOINT RightUpLeg
	{
		OFFSET -6.068371 0.933477 -1.112778
		CHANNELS 3 Xrotation Yrotation Zrotation
		JOINT RightUpLegRoll
		{
			OFFSET 0.000000 -0.000003 17.179596
			CHANNELS 3 Xrotation Yrotation Zrotation
			JOINT RightLeg
			{
				OFFSET 0.000000 0.000004 -21.274300
				CHANNELS 3 Xrotation Yrotation Zrotation
				JOINT RightLegRoll
				{
					OFFSET 0.000000 -0.000004 21.343903
					CHANNELS 3 Xrotation Yrotation Zrotation
					JOINT RightFoot
					{
						OFFSET 0.000000 -0.000003 17.765198
						CHANNELS 3 Xrotation Yrotation Zrotation
						JOINT RightToeBase
						{
							OFFSET 0.000000 -0.000002 14.850792
							CHANNELS 3 Xrotation Yrotation Zrotation
							End Site
							{
								OFFSET 0.006294 0.829003 7.192139
							}
						}
					}
				}
			}
		}
	}
	JOINT LeftUpLeg
	{
		OFFSET 6.068371 0.933477 -1.112778
		CHANNELS 3 Xrotation Yrotation Zrotation
		JOINT LeftUpLegRoll
		{
			OFFSET 0.000000 -0.000003 17.179703
			CHANNELS 3 Xrotation Yrotation Zrotation
			JOINT LeftLeg
			{
				OFFSET 0.000000 -0.000003 21.274200
				CHANNELS 3 Xrotation Yrotation Zrotation
				JOINT LeftLegRoll
				{
					OFFSET 0.000000 -0.000004 21.541199
					CHANNELS 3 Xrotation Yrotation Zrotation
					JOINT LeftFoot
					{
						OFFSET 0.000000 -0.000003 17.567902
						CHANNELS 3 Xrotation Yrotation Zrotation
						JOINT LeftToeBase
						{
							OFFSET 0.000000 -0.000002 14.850800
							CHANNELS 3 Xrotation Yrotation Zrotation
							End Site
							{
								OFFSET -0.028210 0.829004 7.192139
							}
						}
					}
				}
			}
		}
	}
}
MOTION
Frames: 12
Frame Time: 0.041667
50.697605 -5.150437 91.484993 3.565588 5.299351 -1.211288 -3.556125 1.232543 0.372167 -3.117147 2.443334 0.796934 -1.471501 2.445996 0.767592 24.816473 -23.591127 -3.900896 -0.667944 5.582884 -4.981604 -23.012084 -15.571481 -29.103477 -127.207670 -200.746063 -78.103234 0.000001 0.000014 0.000001 36.975519 4.023033 -0.015137 -0.000004 0.000009 -3.000000 -5.000302 -7.998839 0.000163 20.223552 71.885248 -20.510331 -67.165826 98.777417 40.168124 0.000000 -0.000001 0.000002 1.790386 9.804004 0.075889 -0.000004 -0.000004 3.016090 -5.000232 7.998764 -0.000178 -6.606442 -183.262267 -3.427063 -179.999991 0.000005 -0.869000 175.695224 -2.004331 -0.178843 0.000002 -0.000001 0.037993 69.183608 6.884756 2.101081 25.456957 -7.355623 0.000004 -5.447101 167.515826 -3.063428 -0.000005 -0.000004 -0.941259 -8.519157 1.726212 0.372586 -0.000004 0.000001 -0.174275 70.759373 -6.852379 -2.127641 25.456960 7.355615 -0.000000 
50.691704 -5.155627 91.485481 3.572991 5.297283 -1.186824 -3.556513 1.232104 0.371931 -3.118437 2.443051 0.795815 -1.472791 2.445392 0.766475 24.811704 -23.550446 -3.900003 -0.684238 5.538258 -4.973988 -23.003893 -15.582638 -29.089728 -127.253978 -200.639129 -78.082231 0.000001 0.000013 0.000001 36.797132 4.068256 -0.030430 -0.000004 0.000011 -3.000000 -5.000304 -7.998845 0.000165 20.178349 71.898485 -20.458759 -67.128896 98.772520 40.162445 0.000000 -0.000000 0.000002 1.844927 9.829931 0.072597 -0.000006 -0.000005 3.016080 -5.000235 7.998761 -0.000178 -6.610086 -183.262240 -3.429755 -179.999991 0.000005 -0.869000 175.698447 -2.000348 -0.178430 0.000002 -0.000001 0.038000 69.184659 6.884741 2.101113 25.456957 -7.355623 0.000005 -5.458188 167.517056 -3.059265 -0.000005 -0.000004 -0.941218 -8.511999 1.725474 0.372455 -0.000003 0.000001 -0.174258 70.758519 -6.852377 -2.127692 25.456964 7.355615 0.000000 
50.676903 -5.153480 91.485092 3.580220 5.295244 -1.161973 -3.556702 1.231793 0.371611 -3.119358 2.442920 0.794910 -1.473723 2.445064 0.765572 24.803089 -23.514825 -3.900240 -0.697626 5.499556 -4.967497 -22.999340 -15.598894 -29.081364 -127.304057 -200.537892 -78.059090 0.000001 0.000012 0.000001 36.615613 4.115481 -0.046593 -0.000002 0.000010 -2.999999 -5.000302 -7.998843 0.000166 20.126033 71.907514 -20.400412 -67.068271 98.771051 40.132501 0.000001 -0.000000 0.000004 1.897274 9.854343 0.069413 -0.000006 -0.000003 3.016080 -5.000230 7.998765 -0.000174 -6.613476 -183.261215 -3.432469 -179.999991 0.000005 -0.869000 175.701876 -1.996379 -0.178012 0.000002 -0.000001 0.038007 69.185827 6.884767 2.101045 25.456960 -7.355623 0.000004 -5.469440 167.519269 -3.055168 -0.000005 -0.000005 -0.941175 -8.505154 1.724793 0.372272 -0.000003 0.000001 -0.174231 70.757666 -6.852370 -2.127646 25.456964 7.355617 -0.000001 
50.687305 -5.151817 91.484703 3.587218 5.293268 -1.136653 -3.556652 1.231634 0.371198 -3.119859 2.442967 0.794263 -1.474213 2.445042 0.764925 24.789938 -23.485228 -3.901720 -0.707587 5.467805 -4.962342 -22.998808 -15.620870 -29.079162 -127.357852 -200.443704 -78.035225 0.000001 0.000010 0.000001 36.431300 4.164710 -0.063678 -0.000002 0.000009 -3.000001 -5.000303 -7.998845 0.000165 20.065617 71.911633 -20.334378 -66.978741 98.773633 40.073300 0.000001 -0.000000 0.000003 1.947175 9.877086 0.066347 -0.000007 -0.000005 3.016069 -5.000233 7.998762 -0.000175 -6.616569 -183.261202 -3.434972 -179.999991 0.000005 -0.869000 175.705524 -1.991403 -0.177510 0.000002 -0.000001 0.038014 69.187098 6.884761 2.101064 25.456957 -7.355623 0.000004 -5.480939 167.520498 -3.050966 -0.000005 -0.000005 -0.941131 -8.498697 1.724179 0.372032 -0.000003 0.000001 -0.174195 70.756703 -6.852330 -2.127698 25.456960 7.355616 0.000000 
50.691799 -5.154768 91.485397 3.593866 5.291534 -1.110860 -3.556302 1.231525 0.370657 -3.119849 2.443028 0.793871 -1.474202 2.445160 0.764532 24.772722 -23.459601 -3.904768 -0.714748 5.440582 -4.958460 -23.002493 -15.648348 -29.083307 -127.415526 -200.356496 -78.007556 0.000001 0.000008 0.000001 36.241537 4.217182 -0.081829 -0.000000 0.000009 -3.000001 -5.000302 -7.998839 0.000165 19.996856 71.911872 -20.260178 -66.865510 98.780067 39.990088 -0.000000 0.000000 0.000004 1.995369 9.898475 0.063385 -0.000008 -0.000003 3.016061 -5.000231 7.998765 -0.000173 -6.619198 -183.260191 -3.437688 -179.999991 0.000005 -0.869000 175.709458 -1.987422 -0.177074 0.000002 -0.000001 0.038020 69.188464 6.884760 2.101080 25.456957 -7.355623 0.000004 -5.492520 167.521741 -3.046888 -0.000005 -0.000005 -0.941085 -8.492603 1.723583 0.371730 -0.000003 0.000001 -0.174152 70.755630 -6.852325 -2.127662 25.456965 7.355616 -0.000001 
50.688404 -5.151038 91.484192 3.600145 5.290169 -1.084688 -3.555631 1.231356 0.369969 -3.119368 2.442918 0.793687 -1.473722 2.445252 0.764348 24.752476 -23.435414 -3.909220 -0.720141 5.414926 -4.955607 -23.009724 -15.680093 -29.092890 -127.477093 -200.274698 -77.973522 0.000001 0.000012 0.000001 36.043660 4.273808 -0.100956 -0.000002 0.000011 -2.999999 -5.000302 -7.998842 0.000167 19.920838 71.909816 -20.178660 -66.737109 98.789595 39.891706 0.000001 0.000000 0.000004 2.042688 9.918870 0.060496 -0.000007 -0.000004 3.016050 -5.000231 7.998762 -0.000175 -6.621340 -183.260164 -3.440565 -179.999991 0.000005 -0.869000 175.713761 -1.982448 -0.176551 0.000002 -0.000001 0.038027 69.190062 6.884770 2.100983 25.456957 -7.355623 0.000004 -5.504059 167.522971 -3.042968 -0.000005 -0.000005 -0.941036 -8.486756 1.722947 0.371364 -0.000003 0.000001 -0.174102 70.754565 -6.852316 -2.127727 25.456960 7.355616 -0.000000 
50.689804 -5.152797 91.483093 3.606134 5.289086 -1.058199 -3.554691 1.231148 0.369154 -3.118467 2.442691 0.793675 -1.472822 2.445324 0.764340 24.729656 -23.412685 -3.914759 -0.723905 5.391053 -4.953623 -23.020181 -15.716052 -29.107203 -127.542171 -200.197107 -77.935191 0.000001 0.000011 0.000002 35.838662 4.334116 -0.120883 -0.000002 0.000007 -2.999998 -5.000302 -7.998841 0.000164 19.838368 71.905472 -20.090657 -66.594986 98.801931 39.779329 0.000001 -0.000001 0.000002 2.089043 9.938263 0.057684 -0.000007 -0.000005 3.016039 -5.000230 7.998764 -0.000177 -6.623056 -183.259180 -3.443753 -179.999991 0.000005 -0.869000 175.718364 -1.977474 -0.176019 0.000002 -0.000001 0.038034 69.191633 6.884783 2.100988 25.456957 -7.355624 0.000004 -5.515569 167.524200 -3.039165 -0.000005 -0.000005 -0.940984 -8.481110 1.722260 0.370940 -0.000003 0.000001 -0.174046 70.753499 -6.852313 -2.127789 25.456964 7.355616 -0.000000 
50.693905 -5.147926 91.483498 3.611905 5.288205 -1.031450 -3.553521 1.230930 0.368230 -3.117235 2.442396 0.793808 -1.471591 2.445424 0.764477 24.704637 -23.391629 -3.921219 -0.726166 5.369192 -4.952377 -23.033404 -15.755711 -29.125685 -127.610555 -200.122767 -77.891880 0.000002 0.000011 0.000001 35.627605 4.397627 -0.141426 -0.000005 0.000008 -2.999996 -5.000304 -7.998844 0.000165 19.750484 71.899052 -19.997262 -66.440481 98.816745 39.654238 -0.000000 -0.000000 0.000002 2.134312 9.956628 0.054965 -0.000004 -0.000003 3.016029 -5.000232 7.998764 -0.000177 -6.624479 -183.259166 -3.446932 -179.999991 0.000005 -0.869000 175.723200 -1.972501 -0.176477 0.000002 -0.000001 0.038040 69.193443 6.884804 2.100879 25.456957 -7.355623 0.000004 -5.527087 167.525429 -3.035401 -0.000005 -0.000005 -0.940929 -8.475595 1.721552 0.370469 -0.000003 0.000002 -0.173984 70.752420 -6.852273 -2.127851 25.456960 7.355614 -0.000000 
50.693604 -5.148479 91.491302 3.617565 5.287413 -1.004507 -3.552169 1.230712 0.367217 -3.115723 2.442060 0.794052 -1.470080 2.445575 0.764725 24.677882 -23.372358 -3.928338 -0.727046 5.349574 -4.951724 -23.048747 -15.798952 -29.147416 -127.682204 -200.050558 -77.845449 0.000001 0.000015 0.000001 35.411379 4.463845 -0.162403 -0.000002 0.000006 -2.999999 -5.000303 -7.998845 0.000165 19.658131 71.890644 -19.899461 -66.275538 98.833684 39.518194 0.000001 0.000000 0.000004 2.178389 9.973943 0.052336 -0.000006 -0.000005 3.016019 -5.000235 7.998764 -0.000175 -6.625691 -183.259153 -3.450154 -179.999991 0.000005 -0.869000 175.728268 -1.967528 -0.175930 0.000002 -0.000001 0.038047 69.195335 6.884794 2.100860 25.456957 -7.355623 0.000005 -5.538638 167.526645 -3.031641 -0.000005 -0.000005 -0.940872 -8.470180 1.720815 0.369954 -0.000003 0.000002 -0.173916 70.751245 -6.852268 -2.127822 25.456964 7.355615 0.000000 
50.693203 -5.152458 91.489784 3.623175 5.286642 -0.977429 -3.550709 1.230523 0.366135 -3.114010 2.441743 0.794379 -1.468379 2.445798 0.765055 24.649620 -23.354922 -3.935886 -0.726679 5.332394 -4.951523 -23.065967 -15.845426 -29.171868 -127.756858 -199.979538 -77.797228 0.000001 0.000013 0.000001 35.190955 4.532306 -0.183665 0.000000 0.000008 -3.000001 -5.000299 -7.998845 0.000165 19.562116 71.880276 -19.798121 -66.102120 98.852413 39.373087 0.000000 0.000000 0.000004 2.221176 9.990181 0.049809 -0.000005 -0.000006 3.016019 -5.000232 7.998765 -0.000177 -6.626786 -183.258156 -3.453446 -179.999991 0.000005 -0.869000 175.733514 -1.962556 -0.175379 0.000002 -0.000001 0.038054 69.197241 6.884787 2.100938 25.456957 -7.355625 0.000004 -5.550268 167.526905 -3.027698 -0.000005 -0.000004 -0.940814 -8.464793 1.720078 0.369406 -0.000003 0.000001 -0.173842 70.750077 -6.852260 -2.127793 25.456962 7.355613 0.000001 
50.681297 -5.149456 91.485992 3.628831 5.285792 -0.950276 -3.549160 1.230376 0.365000 -3.112178 2.441488 0.794756 -1.466536 2.446141 0.765435 24.620424 -23.339421 -3.943661 -0.725186 5.317899 -4.951653 -23.084513 -15.894824 -29.198249 -127.834299 -199.908654 -77.747292 0.000001 0.000013 0.000001 34.967215 4.602513 -0.205040 -0.000002 0.000009 -3.000001 -5.000305 -7.998843 0.000165 19.463491 71.868159 -19.694313 -65.920963 98.872650 39.219390 0.000001 -0.000000 0.000003 2.262569 10.005352 0.047386 -0.000006 -0.000003 3.016008 -5.000231 7.998762 -0.000176 -6.627879 -183.258142 -3.456504 -179.999991 0.000005 -0.869000 175.738869 -1.957583 -0.174824 0.000002 -0.000001 0.038061 69.199153 6.884812 2.100926 25.456957 -7.355622 0.000004 -5.561972 167.528148 -3.023726 -0.000005 -0.000005 -0.940753 -8.459388 1.719330 0.368830 -0.000003 0.000002 -0.173762 70.748786 -6.852252 -2.127871 25.456960 7.355616 -0.000000 
50.679405 -5.141437 91.486397 3.634620 5.284779 -0.923112 -3.547600 1.230298 0.363836 -3.110276 2.441342 0.795151 -1.464635 2.446611 0.765831 24.590459 -23.326098 -3.951385 -0.722695 5.306301 -4.951949 -23.103933 -15.946905 -29.225929 -127.914444 -199.836814 -77.697678 0.000001 0.000012 0.000001 34.741139 4.673979 -0.226389 -0.000005 0.000007 -2.999999 -5.000303 -7.998842 0.000164 19.363019 71.854300 -19.588860 -65.733884 98.894036 39.058850 0.000001 -0.000000 0.000002 2.302443 10.019368 0.045080 -0.000005 -0.000005 3.016000 -5.000233 7.998763 -0.000179 -6.629044 -183.257145 -3.459473 -179.999991 0.000005 -0.869000 175.744319 -1.952611 -0.174267 0.000002 -0.000001 0.038068 69.201154 6.884808 2.100899 25.456957 -7.355623 0.000004 -5.573766 167.530375 -3.019658 -0.000005 -0.000005 -0.940690 -8.453921 1.718593 0.368234 -0.000002 0.000002 -0.173676 70.747516 -6.852245 -2.127849 25.456962 7.355615 -0.000001 
